<svg id="Layer_2" data-name="Layer 2" xmlns="http://www.w3.org/2000/svg" viewBox="0 0 438.17 371.66">
<defs><style>.cls-1{fill:#f6f4b6;}.cls-2{fill:none;stroke:#000;stroke-linecap:round;stroke-linejoin:round;stroke-width:9.2px;}</style></defs>
<path class="cls-1" d="M178.16,417c32.56-42.45,56.64-70.35,110.52-94.39s164.11-58.21,155.91-83.2-41.17-25.91-92.09-20.24c0,0-6.22-33.06-27.08-43.49,0,0,99.81-64.21,103.53-79s-3.75-31.37-35-30.46c-29.64.87-48-2.66-126.6,86.4,0,0-26.7,5.21-33.46,8.94,0,0-52-28.3-76.31-28.3,0,0-19.08-48.35-49.62-61.08,0,0-21.17,9.28-39.25,68.12,0,0-87.36,78.5-16.83,141.59,0,0-69.79,74.81-35.53,101.63S88.82,350,88.82,350s28.36,6.73,30.44,14.18-15.13,50.65,4.27,65.55,36.85,6,43,0A161,161,0,0,0,178.16,417Z" transform="translate(-6.85 -66.18)"/><path class="cls-2" d="M251.64,205a161.56,161.56,0,0,0-24.2-23.49c-13.14-10.44-21.83-14.85-40.27-22.91,0,0-24.42-9.82-46.59-10.51-3.93-30.77-33.08-51.39-33.08-51.39s-25.22,31.37-29.91,65.16a67.74,67.74,0,0,0-7,5c-31.49,25.76-46.93,75.73-.44,115,11.34,9.59,26.36,18.53,45.73,26.32,98.78,39.75,140.67-11.83,154.22-40.31a32.16,32.16,0,0,0,3-12.49c22.14-21.67,32.88-51.58,32.88-51.58C287.34,193.75,273.21,196.64,251.64,205ZM78.35,237.11c-10.28,1.3,0-16.54,0-16.54C82.64,228.32,88.64,235.81,78.35,237.11Zm27.33-30.37c-8.77,1.62-25.36-16.12-11.59-19S119.38,204.22,105.68,206.74Zm69.14,73c-14.6-.31-6.32-15.24-1.82-12.57C173,267.16,183.28,279.91,174.82,279.73Zm-13.38-42.9c-15.81,1.09,21.48-26.2,24.8-14.87S184.53,235.25,161.44,236.83Z" transform="translate(-6.85 -66.18)"/><path class="cls-2" d="M78.35,237.11c-10.28,1.3,0-16.54,0-16.54C82.64,228.32,88.64,235.81,78.35,237.11Z" transform="translate(-6.85 -66.18)"/><path class="cls-2" d="M105.68,206.74c-8.77,1.62-25.36-16.12-11.59-19S119.38,204.22,105.68,206.74Z" transform="translate(-6.85 -66.18)"/><path class="cls-2" d="M174.82,279.73c-14.6-.31-6.32-15.24-1.82-12.57C173,267.16,183.28,279.91,174.82,279.73Z" transform="translate(-6.85 -66.18)"/><path class="cls-2" d="M161.44,236.83c-15.81,1.09,21.48-26.2,24.8-14.87S184.53,235.25,161.44,236.83Z" transform="translate(-6.85 -66.18)"/><path class="cls-2" d="M362.42,275.94c-113.08,41.8-154.08,75.14-179.64,110.23S145.17,427.46,135.49,420c-11.36-8.73,8.84-38.2,10.48-54S80.91,327.6,80.91,327.6,49.59,386.07,28,374.12c-19.54-10.79,15.95-67.54,42.19-92.29,11.34,9.59,26.36,18.53,45.73,26.32,98.78,39.75,140.67-11.83,154.22-40.31a32.16,32.16,0,0,0,3-12.49c22.14-21.67,32.88-51.58,32.88-51.58-18.6-10-32.73-7.13-54.3,1.21a161.56,161.56,0,0,0-24.2-23.49c18.74-6.2,34.49-8.65,47.72-8.47l21.95-25.93S353.45,74.37,394,81.71s5.92,25.82-15.18,39.62c-20.49,13.41-60.84,37.3-78.63,55.78a61.43,61.43,0,0,1,20.47,11.71c20.57,17.84,23.4,44.39,23.4,44.39C420,222.88,475.49,234.15,362.42,275.94Z" transform="translate(-6.85 -66.18)"/><path class="cls-2" d="M227.44,181.49" transform="translate(-6.85 -66.18)"/><path class="cls-2" d="M70.15,281.83" transform="translate(-6.85 -66.18)"/><path class="cls-2" d="M105.68,251.22c-11.71,12-1,36.6,13.7,15.31,0,0,2.2,25.66,13.82,10.65,6-7.7,4.44-13.66,4.44-13.66" transform="translate(-6.85 -66.18)"/><path class="cls-2" d="M161.44,236.83c-15.81,1.09,21.48-26.2,24.8-14.87S184.53,235.25,161.44,236.83Z" transform="translate(-6.85 -66.18)"/><path class="cls-2" d="M105.68,206.74c-8.77,1.62-25.36-16.12-11.59-19S119.38,204.22,105.68,206.74Z" transform="translate(-6.85 -66.18)"/><path class="cls-2" d="M174.82,279.73c-14.6-.31-6.32-15.24-1.82-12.57C173,267.16,183.28,279.91,174.82,279.73Z" transform="translate(-6.85 -66.18)"/><path class="cls-2" d="M78.35,237.11c-10.28,1.3,0-16.54,0-16.54C82.64,228.32,88.64,235.81,78.35,237.11Z" transform="translate(-6.85 -66.18)"/><path class="cls-2" d="M316.48,240.51c-6-5-18.6,8.94-10.54,8A13.07,13.07,0,0,0,316.48,240.51Z" transform="translate(-6.85 -66.18)"/><path class="cls-2" d="M288.68,273.29c-1.49-4-12.91-5-11.92,3S288.68,273.29,288.68,273.29Z" transform="translate(-6.85 -66.18)"/><path class="cls-2" d="M262.11,187.43c3-5.76,10.43,0,10.43,0Z" transform="translate(-6.85 -66.18)"/><path class="cls-2" d="M335.1,261.37c0-6.71,7.45-7.45,10.43-5.22s-10.43,10.4-10.43,10.4" transform="translate(-6.85 -66.18)"/><path class="cls-2" d="M157.55,379.05c1-8.19,15.18-10.43,14.81-8.94s.47,17.88-7.4,17.13S157.55,379.05,157.55,379.05Z" transform="translate(-6.85 -66.18)"/><path class="cls-2" d="M172.36,344.79c2.61-7.45,10-5.22,10,0S172.36,344.79,172.36,344.79Z" transform="translate(-6.85 -66.18)"/><path class="cls-2" d="M46.11,347.1c-1.49-7.53-3-20.15,6-14.59s7.45,10.95,3.72,14.59S46.11,347.1,46.11,347.1Z" transform="translate(-6.85 -66.18)"/><path class="cls-2" d="M70.15,318c-5.09-1.23,4.31-9.68,8.76-6.7S76.31,319.46,70.15,318Z" transform="translate(-6.85 -66.18)"/><path class="cls-2" d="M115.38,343.55c2.23-5.47,5.21-12.92,12.66-7.7s1.19,12.87,1.19,12.87" transform="translate(-6.85 -66.18)"/><path class="cls-2" d="M259.13,318.23c-1.49-12.17,9.68-18.13,13.41-19.62s11.52,8,10.15,9.81" transform="translate(-6.85 -66.18)"/><path class="cls-2" d="M305.94,136.53c14.27,8.64,30.65,1.19,29.16-10s-6.93-12.91-6.93-12.91" transform="translate(-6.85 -66.18)"/><path class="cls-2" d="M356,121.34c-10.83-4.06,6.7-21.6,12.66-14.9S367.88,125.81,356,121.34Z" transform="translate(-6.85 -66.18)"/><path class="cls-2" d="M138.55,158.26c-7.16,13.41-3.35,32.37,7.41,19.17S138.55,158.26,138.55,158.26Z" transform="translate(-6.85 -66.18)"/><path class="cls-2" d="M206.48,183.9c-10.42,11.37-8.19,25.65,5.22,17.76S206.48,183.9,206.48,183.9Z" transform="translate(-6.85 -66.18)"/><path class="cls-2" d="M241.26,266.55c-10.58-5.54-22.42,6.22-13.82,13.18S255.41,274,241.26,266.55Z" transform="translate(-6.85 -66.18)"/><path class="cls-2" d="M239.77,228c-8.23,1.62-8.2,20.15,2.23,15.94S250.19,226,239.77,228Z" transform="translate(-6.85 -66.18)"/><path class="cls-2" d="M381.25,229.82c6,13.67,22.34,15.59,25.34.48" transform="translate(-6.85 -66.18)"/><path class="cls-2" d="M369.1,273.43c-1.22-11.32-2-24.84,12.15-21.43s12.67,11.2,12.67,11.2" transform="translate(-6.85 -66.18)"/></svg>