<svg id="Layer_1" data-name="Layer 1" xmlns="http://www.w3.org/2000/svg" viewBox="0 0 468.48 426.44"><defs>
<style>.cls-1{fill:red;}.cls-2{fill:none;stroke:#000;stroke-linecap:round;stroke-linejoin:round;stroke-width:9.26px;}</style></defs>
<path class="cls-1" d="M82.7,23.62c25.2-9.7,220.9-90.3,186.1,175.1,0,0,33.9-1.4,54.8,6,20.7,7.3,53.9,20.3,66,53.5s40.7,25.7,48.4,10.1c0,0-24.2-26.4,3.4-39.7s30.5,7,30.5,7,5.3,18.4-6.3,33.7c0,0-2.9,32.7-32.9,39.7s-40.2-4.7-40.2-4.7l-2.9,115.8c-17.4,16.5-39.1,9.2-49.6,0v-9.7s-15.6-2.6-14.7-11.7,0-30.9,0-30.9-25.2-19.9-29.6-31.8l-66.3,2.7v85.5c-19.4,11.1-41.5,6.8-51.6.5l-.3-13.9s-11.5,1.4-18.8-10.2v-84.1s-49.4-20.7-32.4-124.9c0,0-81.6,42.8-110.9,0s9.1-80.1,21.8-84.9S78.6,89,78.6,89s-25.9-34.3-7.1-48l22.2,5.7Z" transform="translate(-4.63 -4.63)"/><path class="cls-2" d="M378.1,416l-12.5-12.5L354.9,416v-62.1s-19-9-32.1-31.6c-11,.8-25.1,1.5-43.4,2.4-34.3,1.6-51.8,2.3-64.4,1V416l-11.6-8.8L190.8,416s-.2-11.2-.4-27.1c-.2-20-.3-47.4.1-69.6-13.6-5.6-26.1-13.3-33.4-20.5-21.5-21-20.2-57.1-19.5-77.8.9-26.8,7.9-44.3.9-48.2-1.2-.6-2.5-.8-24.1,9.3-12.6,5.8-19.5,9.3-30.6,13-2.3.8-4,1.3-5.4,1.8,2.2-33.3-28.7-58.7-48.9-63.9a46.51,46.51,0,0,1,4.4-5.5c8.4-9.4,16.2-11.4,41.7-21.3,53.8-20.9,50.1-23.9,62.1-24.1,1.5,0,3.1,0,4.6.1-1.2-16.7,9.2-42.5,16.7-40.8,7.8,1.7,16.3,25.9,7,45.7,17.2,6.3,32.4,18.2,41.2,33,5.5,9.3,7.4,18.8,11.1,38,7.1,35.9,1.6,48.9,11.1,56.5,6.4,5.1,13,2.4,24.5-.3a117.12,117.12,0,0,1,22.8-3.4c34-1.4,64.6,12.7,83.4,31.5,6.8,6.8,15.7,16.1,17.6,30.6v8Z" transform="translate(-4.63 -4.63)"/><path class="cls-2" d="M78.5,196.92a23.89,23.89,0,0,1-3.8,1c-17,3.6-45.9-3.7-53.7-25-5.9-15.8,2.8-31.7,8.6-39.9C49.8,138.22,80.7,163.62,78.5,196.92Z" transform="translate(-4.63 -4.63)"/><path class="cls-2" d="M377.6,281v-8A35.67,35.67,0,0,1,377.6,281Z" transform="translate(-4.63 -4.63)"/><line class="cls-2" x1="210.37" y1="321.19" x2="210.37" y2="304.89"/><path class="cls-2" d="M190.8,309.52c-.1,3.1-.2,6.4-.3,9.8" transform="translate(-4.63 -4.63)"/><path class="cls-2" d="M190.8,389.22l-6.8-5.1-11.5,12.5s.4-55.1,0-85.2" transform="translate(-4.63 -4.63)"/><path class="cls-2" d="M322.8,322.42a81.85,81.85,0,0,1-6.3-13.4" transform="translate(-4.63 -4.63)"/><path class="cls-2" d="M165.9,87.12a35.46,35.46,0,0,1-2.4,4.3" transform="translate(-4.63 -4.63)"/><path class="cls-2" d="M143.3,87.72a25.57,25.57,0,0,1-.9-5.5" transform="translate(-4.63 -4.63)"/><path class="cls-2" d="M121.1,86l-20.4-54.9S177.6-4.18,229,41.22s24,177.5,24,177.5" transform="translate(-4.63 -4.63)"/><path class="cls-2" d="M116.5,73.82C89.5,62.72,78.4,58,78.4,58s-.9,18.5,22.2,33.3" transform="translate(-4.63 -4.63)"/><path class="cls-2" d="M142.3,240c23.6,6.5,70.3-14,80.8-41.3l34.6-6.9" transform="translate(-4.63 -4.63)"/><path class="cls-2" d="M138.2,212.12c24,.1,66.4-11.2,82.3-40.8l37.1-11" transform="translate(-4.63 -4.63)"/><path class="cls-2" d="M142.3,186.22c24.5-.9,51.4-6.4,72.7-34.2l45.2-14.8" transform="translate(-4.63 -4.63)"/><path class="cls-2" d="M138.6,172.92c31-6.9,59.7-23.4,72.2-45.3l46-27.6" transform="translate(-4.63 -4.63)"/><path class="cls-2" d="M139.4,261.52c31.2,3.6,83.1-14.9,90-46.9" transform="translate(-4.63 -4.63)"/><path class="cls-2" d="M151.9,292.92c46.4-6.6,78.3-42.4,92.5-76.4" transform="translate(-4.63 -4.63)"/><path class="cls-2" d="M163.6,304.42c15.7-3.7,34.7-11.7,52.4-23.7,23.6-16,44.8-39,52.8-68.5" transform="translate(-4.63 -4.63)"/><path class="cls-2" d="M244.4,254.72" transform="translate(-4.63 -4.63)"/><path class="cls-2" d="M225.2,325.82c17.6-32.9,13.6-63.9,13.6-63.9" transform="translate(-4.63 -4.63)"/><path class="cls-2" d="M190.8,330.82c14,9.3,16.3,4.6,25.4,0" transform="translate(-4.63 -4.63)"/><path class="cls-2" d="M190.8,350.32c14,10.2,16.8,3.7,24.2,0" transform="translate(-4.63 -4.63)"/><path class="cls-2" d="M263.1,322.42c-15.6,21.4,43.5-43.8,35.7-110.3" transform="translate(-4.63 -4.63)"/><path class="cls-2" d="M319.6,217.42c5.6,32.9-9.2,74.4-33.3,105.1" transform="translate(-4.63 -4.63)"/><path class="cls-2" d="M342.9,228.72c-2.8,57.7-8.7,78.6-20.1,89" transform="translate(-4.63 -4.63)"/><path class="cls-2" d="M328.3,330.82c33-13,38-81.8,38-81.8" transform="translate(-4.63 -4.63)"/><path class="cls-2" d="M340.1,343.62c25-8.2,37.1-44.5,37.5-53.7" transform="translate(-4.63 -4.63)"/><path class="cls-2" d="M354.9,360.42c14.8,7.4,23.2-24.3,23.2-24.3" transform="translate(-4.63 -4.63)"/><path class="cls-2" d="M354.9,386.42c13-2.8,11.1-2.8,11.1-2.8l11.6-15.7" transform="translate(-4.63 -4.63)"/><path class="cls-2" d="M190.3,371.62c14.1,8.8,14.5,7.1,25.9-3.6" transform="translate(-4.63 -4.63)"/><path class="cls-2" d="M129.2,175.52c12.4-13.6,24.3-23.8,33.8-35.6s16.4-25.2,18.7-45.2l38.5-60.3" transform="translate(-4.63 -4.63)"/><path class="cls-2" d="M180.5,137.22c20.7-13.9,20.8-25.5,20.8-25.5l46.5-43.4" transform="translate(-4.63 -4.63)"/><line class="cls-2" x1="185.67" y1="16.59" x2="167.87" y2="86.79"/><line class="cls-2" x1="158.97" y1="16.59" x2="160.17" y2="42.09"/><line class="cls-2" x1="137.67" y1="16.59" x2="145.07" y2="45.29"/><line class="cls-2" x1="118.07" y1="18.99" x2="133.07" y2="77.49"/><path class="cls-2" d="M452.9,264.42a20.89,20.89,0,0,0,.2-2.5s-24.1-10.7-4.6-23.7c15.3-10.3,17.4,12.1,4.4,26.2-4.9,41.4-63,37.9-75.3,2.8" transform="translate(-4.63 -4.63)"/><path class="cls-2" d="M192.6,102.82c25.2-31.4,44.5-52.9,44.5-52.9" transform="translate(-4.63 -4.63)"/><line class="cls-2" x1="35.37" y1="157.09" x2="44.17" y2="170.89"/><path class="cls-2" d="M116.2,89.22" transform="translate(-4.63 -4.63)"/><path class="cls-2" d="M111.5,91.42c25.7,14.4,44.9,27.7,40.4,60.9" transform="translate(-4.63 -4.63)"/><path class="cls-2" d="M172.5,330.82c10.1,7.4,17.8,8.1,17.8,8.1" transform="translate(-4.63 -4.63)"/><path class="cls-2" d="M172.5,355.72c7.3,6.6,18.3,5.8,18.3,5.8" transform="translate(-4.63 -4.63)"/><circle class="cls-2" cx="113.57" cy="131.19" r="4.2"/><path class="cls-2" d="M286.4,210.92c1.9,19.9-26.6,94.1-50.4,114.9" transform="translate(-4.63 -4.63)"/><path class="cls-2" d="M303.6,323.62a102.21,102.21,0,0,0,6.3,9.9c8.5,11.5,20.2,22.4,28.2,25.2v40.2l9.3-9.2,7.6,5.8" transform="translate(-4.63 -4.63)"/><path class="cls-2" d="M443.3,338.92" transform="translate(-4.63 -4.63)"/><path class="cls-2" d="M338.1,379.52a40,40,0,0,0,16.8-15" transform="translate(-4.63 -4.63)"/><path class="cls-2" d="M311.9,336.22c12.4-1.6,13.4-9.6,13.4-9.6" transform="translate(-4.63 -4.63)"/><path class="cls-2" d="M323.6,348.92c10-4.2,11.6-10,11.6-10" transform="translate(-4.63 -4.63)"/><path class="cls-2" d="M338.1,358.72c8.5-1.9,12.5-7.1,12.5-7.1" transform="translate(-4.63 -4.63)"/></svg>